     <svg
              xmlns="http://www.w3.org/2000/svg"
              width="144.63"
              height="46.917"
              viewBox="0 0 144.63 46.917"
            >
              <path
                id="Path_182"
                data-name="Path 182"
                d="M10.16,47.79c-.374,0-.738,0-1.109-.013a15.561,15.561,0,0,1-2.293-.2A7.217,7.217,0,0,1,4.726,46.9a6.63,6.63,0,0,1-1.713-1.247,6.526,6.526,0,0,1-1.252-1.713A7.018,7.018,0,0,1,1.1,41.912a15.225,15.225,0,0,1-.2-2.3c-.008-.259-.018-1.12-.018-1.12V10.159s.011-.848.018-1.1a15.172,15.172,0,0,1,.2-2.3,7.059,7.059,0,0,1,.667-2.039A6.591,6.591,0,0,1,3.006,3.012a6.826,6.826,0,0,1,1.72-1.254,7.142,7.142,0,0,1,2.028-.667,15.437,15.437,0,0,1,2.3-.2L10.161.875H136.209l1.12.016a15.191,15.191,0,0,1,2.279.2,7.283,7.283,0,0,1,2.049.672A6.861,6.861,0,0,1,144.62,4.73a7.068,7.068,0,0,1,.656,2.022,15.939,15.939,0,0,1,.213,2.315c0,.347,0,.72,0,1.092.01.46.01.9.01,1.339v25.67c0,.446,0,.88-.01,1.319,0,.4,0,.764,0,1.14a15.614,15.614,0,0,1-.21,2.273,7.039,7.039,0,0,1-.662,2.048,6.722,6.722,0,0,1-1.246,1.7,6.639,6.639,0,0,1-1.716,1.254,7.19,7.19,0,0,1-2.046.674,15.383,15.383,0,0,1-2.293.2c-.359.008-.735.013-1.1.013l-1.33,0Z"
                transform="translate(-0.873 -0.875)"
                fill="#fff"
              />
            </svg>